<mxfile host="app.diagrams.net" modified="2023-11-07T19:19:22.028Z" agent="Mozilla/5.0 (Windows NT 10.0; Win64; x64) AppleWebKit/537.36 (KHTML, like Gecko) Chrome/119.0.0.0 Safari/537.36 Edg/119.0.0.0" etag="Q2HhqAH_Sdb2svFhO9Oa" version="22.0.8" type="device">
  <diagram name="Page-1" id="mgRjNQVp3ggfyCT5WDuI">
    <mxGraphModel dx="1876" dy="425" grid="1" gridSize="10" guides="1" tooltips="1" connect="1" arrows="1" fold="1" page="1" pageScale="1" pageWidth="850" pageHeight="1100" math="0" shadow="0">
      <root>
        <mxCell id="0" />
        <mxCell id="1" parent="0" />
        <mxCell id="HeKbBGghBGxe2ZGlagXf-3" value="LIBRO" style="swimlane;whiteSpace=wrap;html=1;labelBackgroundColor=none;fillColor=#F2CC8F;strokeColor=#E07A5F;fontColor=#393C56;" vertex="1" parent="1">
          <mxGeometry x="60" y="10" width="200" height="250" as="geometry" />
        </mxCell>
        <mxCell id="HeKbBGghBGxe2ZGlagXf-4" value="LIB_ID (PK)" style="text;html=1;align=center;verticalAlign=middle;resizable=0;points=[];autosize=1;strokeColor=none;fillColor=none;labelBackgroundColor=none;fontColor=#393C56;" vertex="1" parent="HeKbBGghBGxe2ZGlagXf-3">
          <mxGeometry x="30" y="30" width="90" height="30" as="geometry" />
        </mxCell>
        <mxCell id="HeKbBGghBGxe2ZGlagXf-5" value="LIB_TITULO" style="text;html=1;align=center;verticalAlign=middle;resizable=0;points=[];autosize=1;strokeColor=none;fillColor=none;labelBackgroundColor=none;fontColor=#393C56;" vertex="1" parent="HeKbBGghBGxe2ZGlagXf-3">
          <mxGeometry x="30" y="60" width="90" height="30" as="geometry" />
        </mxCell>
        <mxCell id="HeKbBGghBGxe2ZGlagXf-6" value="LIB_ISBN" style="text;html=1;align=center;verticalAlign=middle;resizable=0;points=[];autosize=1;strokeColor=none;fillColor=none;labelBackgroundColor=none;fontColor=#393C56;" vertex="1" parent="HeKbBGghBGxe2ZGlagXf-3">
          <mxGeometry x="30" y="90" width="80" height="30" as="geometry" />
        </mxCell>
        <mxCell id="HeKbBGghBGxe2ZGlagXf-7" value="GEN_ID (FK)" style="text;html=1;align=center;verticalAlign=middle;resizable=0;points=[];autosize=1;strokeColor=none;fillColor=none;labelBackgroundColor=none;fontColor=#393C56;" vertex="1" parent="HeKbBGghBGxe2ZGlagXf-3">
          <mxGeometry x="30" y="120" width="90" height="30" as="geometry" />
        </mxCell>
        <mxCell id="HeKbBGghBGxe2ZGlagXf-8" value="LIB_AÃ‘O_PUBLICACION" style="text;html=1;align=center;verticalAlign=middle;resizable=0;points=[];autosize=1;strokeColor=none;fillColor=none;labelBackgroundColor=none;fontColor=#393C56;" vertex="1" parent="HeKbBGghBGxe2ZGlagXf-3">
          <mxGeometry x="30" y="150" width="160" height="30" as="geometry" />
        </mxCell>
        <mxCell id="HeKbBGghBGxe2ZGlagXf-11" value="AUT_ID (FK)" style="text;html=1;align=center;verticalAlign=middle;resizable=0;points=[];autosize=1;strokeColor=none;fillColor=none;labelBackgroundColor=none;fontColor=#393C56;" vertex="1" parent="HeKbBGghBGxe2ZGlagXf-3">
          <mxGeometry x="30" y="180" width="90" height="30" as="geometry" />
        </mxCell>
        <mxCell id="HeKbBGghBGxe2ZGlagXf-30" value="LIB_ESTADO" style="text;html=1;align=center;verticalAlign=middle;resizable=0;points=[];autosize=1;strokeColor=none;fillColor=none;labelBackgroundColor=none;fontColor=#393C56;" vertex="1" parent="HeKbBGghBGxe2ZGlagXf-3">
          <mxGeometry x="30" y="210" width="100" height="30" as="geometry" />
        </mxCell>
        <mxCell id="HeKbBGghBGxe2ZGlagXf-9" value="AUTOR" style="swimlane;whiteSpace=wrap;html=1;labelBackgroundColor=none;fillColor=#F2CC8F;strokeColor=#E07A5F;fontColor=#393C56;" vertex="1" parent="1">
          <mxGeometry x="-170" y="180" width="200" height="120" as="geometry" />
        </mxCell>
        <mxCell id="HeKbBGghBGxe2ZGlagXf-12" value="AUT_ID (PK)" style="text;html=1;align=center;verticalAlign=middle;resizable=0;points=[];autosize=1;strokeColor=none;fillColor=none;labelBackgroundColor=none;fontColor=#393C56;" vertex="1" parent="HeKbBGghBGxe2ZGlagXf-9">
          <mxGeometry x="55" y="30" width="90" height="30" as="geometry" />
        </mxCell>
        <mxCell id="HeKbBGghBGxe2ZGlagXf-13" value="AUT_NOMBRE" style="text;html=1;align=center;verticalAlign=middle;resizable=0;points=[];autosize=1;strokeColor=none;fillColor=none;labelBackgroundColor=none;fontColor=#393C56;" vertex="1" parent="HeKbBGghBGxe2ZGlagXf-9">
          <mxGeometry x="50" y="60" width="110" height="30" as="geometry" />
        </mxCell>
        <mxCell id="HeKbBGghBGxe2ZGlagXf-14" value="AUT_APELLIDO" style="text;html=1;align=center;verticalAlign=middle;resizable=0;points=[];autosize=1;strokeColor=none;fillColor=none;labelBackgroundColor=none;fontColor=#393C56;" vertex="1" parent="HeKbBGghBGxe2ZGlagXf-9">
          <mxGeometry x="55" y="90" width="110" height="30" as="geometry" />
        </mxCell>
        <mxCell id="HeKbBGghBGxe2ZGlagXf-15" value="GENERO" style="swimlane;whiteSpace=wrap;html=1;labelBackgroundColor=none;fillColor=#F2CC8F;strokeColor=#E07A5F;fontColor=#393C56;" vertex="1" parent="1">
          <mxGeometry x="-170" y="10" width="200" height="130" as="geometry" />
        </mxCell>
        <mxCell id="HeKbBGghBGxe2ZGlagXf-17" value="GEN_NOMBRE" style="text;html=1;align=center;verticalAlign=middle;resizable=0;points=[];autosize=1;strokeColor=none;fillColor=none;labelBackgroundColor=none;fontColor=#393C56;" vertex="1" parent="HeKbBGghBGxe2ZGlagXf-15">
          <mxGeometry x="35" y="78" width="110" height="30" as="geometry" />
        </mxCell>
        <mxCell id="HeKbBGghBGxe2ZGlagXf-16" value="GEN_ID (PK)" style="text;html=1;align=center;verticalAlign=middle;resizable=0;points=[];autosize=1;strokeColor=none;fillColor=none;labelBackgroundColor=none;fontColor=#393C56;" vertex="1" parent="HeKbBGghBGxe2ZGlagXf-15">
          <mxGeometry x="35" y="38" width="100" height="30" as="geometry" />
        </mxCell>
        <mxCell id="HeKbBGghBGxe2ZGlagXf-23" value="PRESTAMO" style="swimlane;whiteSpace=wrap;html=1;labelBackgroundColor=none;fillColor=#F2CC8F;strokeColor=#E07A5F;fontColor=#393C56;" vertex="1" parent="1">
          <mxGeometry x="300" y="10" width="200" height="250" as="geometry" />
        </mxCell>
        <mxCell id="HeKbBGghBGxe2ZGlagXf-24" value="PRES_ID (PK)" style="text;html=1;align=center;verticalAlign=middle;resizable=0;points=[];autosize=1;strokeColor=none;fillColor=none;labelBackgroundColor=none;fontColor=#393C56;" vertex="1" parent="HeKbBGghBGxe2ZGlagXf-23">
          <mxGeometry x="25" y="40" width="100" height="30" as="geometry" />
        </mxCell>
        <mxCell id="HeKbBGghBGxe2ZGlagXf-25" value="USU_ID (FK)" style="text;html=1;align=center;verticalAlign=middle;resizable=0;points=[];autosize=1;strokeColor=none;fillColor=none;labelBackgroundColor=none;fontColor=#393C56;" vertex="1" parent="HeKbBGghBGxe2ZGlagXf-23">
          <mxGeometry x="25" y="70" width="90" height="30" as="geometry" />
        </mxCell>
        <mxCell id="HeKbBGghBGxe2ZGlagXf-26" value="LIB_ID (FK)" style="text;html=1;align=center;verticalAlign=middle;resizable=0;points=[];autosize=1;strokeColor=none;fillColor=none;labelBackgroundColor=none;fontColor=#393C56;" vertex="1" parent="HeKbBGghBGxe2ZGlagXf-23">
          <mxGeometry x="25" y="105" width="90" height="30" as="geometry" />
        </mxCell>
        <mxCell id="HeKbBGghBGxe2ZGlagXf-27" value="PRES_FECHA_INICIO" style="text;html=1;align=center;verticalAlign=middle;resizable=0;points=[];autosize=1;strokeColor=none;fillColor=none;labelBackgroundColor=none;fontColor=#393C56;" vertex="1" parent="HeKbBGghBGxe2ZGlagXf-23">
          <mxGeometry x="25" y="135" width="150" height="30" as="geometry" />
        </mxCell>
        <mxCell id="HeKbBGghBGxe2ZGlagXf-28" value="PRES_FECHA_FIN" style="text;html=1;align=center;verticalAlign=middle;resizable=0;points=[];autosize=1;strokeColor=none;fillColor=none;labelBackgroundColor=none;fontColor=#393C56;" vertex="1" parent="HeKbBGghBGxe2ZGlagXf-23">
          <mxGeometry x="25" y="165" width="130" height="30" as="geometry" />
        </mxCell>
        <mxCell id="HeKbBGghBGxe2ZGlagXf-53" value="PRES_ESTADO" style="text;html=1;align=center;verticalAlign=middle;resizable=0;points=[];autosize=1;strokeColor=none;fillColor=none;labelBackgroundColor=none;fontColor=#393C56;" vertex="1" parent="HeKbBGghBGxe2ZGlagXf-23">
          <mxGeometry x="25" y="195" width="110" height="30" as="geometry" />
        </mxCell>
        <mxCell id="HeKbBGghBGxe2ZGlagXf-18" value="USUARIO" style="swimlane;whiteSpace=wrap;html=1;startSize=23;labelBackgroundColor=none;fillColor=#F2CC8F;strokeColor=#E07A5F;fontColor=#393C56;" vertex="1" parent="1">
          <mxGeometry x="540" y="10" width="200" height="200" as="geometry" />
        </mxCell>
        <mxCell id="HeKbBGghBGxe2ZGlagXf-20" value="USU_NOMBRE" style="text;html=1;align=center;verticalAlign=middle;resizable=0;points=[];autosize=1;strokeColor=none;fillColor=none;labelBackgroundColor=none;fontColor=#393C56;" vertex="1" parent="HeKbBGghBGxe2ZGlagXf-18">
          <mxGeometry x="30" y="70" width="110" height="30" as="geometry" />
        </mxCell>
        <mxCell id="HeKbBGghBGxe2ZGlagXf-21" value="USU_APELLIDO" style="text;html=1;align=center;verticalAlign=middle;resizable=0;points=[];autosize=1;strokeColor=none;fillColor=none;labelBackgroundColor=none;fontColor=#393C56;" vertex="1" parent="HeKbBGghBGxe2ZGlagXf-18">
          <mxGeometry x="35" y="100" width="110" height="30" as="geometry" />
        </mxCell>
        <mxCell id="HeKbBGghBGxe2ZGlagXf-19" value="USU_ID (PK)" style="text;html=1;align=center;verticalAlign=middle;resizable=0;points=[];autosize=1;strokeColor=none;fillColor=none;labelBackgroundColor=none;fontColor=#393C56;" vertex="1" parent="HeKbBGghBGxe2ZGlagXf-18">
          <mxGeometry x="35" y="40" width="90" height="30" as="geometry" />
        </mxCell>
        <mxCell id="HeKbBGghBGxe2ZGlagXf-34" value="" style="edgeStyle=entityRelationEdgeStyle;fontSize=12;html=1;endArrow=ERoneToMany;hachureGap=4;fontFamily=Architects Daughter;fontSource=https%3A%2F%2Ffonts.googleapis.com%2Fcss%3Ffamily%3DArchitects%2BDaughter;rounded=1;shadow=0;strokeColor=#CC00CC;strokeWidth=2;entryX=1.041;entryY=0.556;entryDx=0;entryDy=0;entryPerimeter=0;" edge="1" parent="1" source="HeKbBGghBGxe2ZGlagXf-19" target="HeKbBGghBGxe2ZGlagXf-25">
          <mxGeometry width="100" height="100" relative="1" as="geometry">
            <mxPoint x="616" y="166" as="sourcePoint" />
            <mxPoint x="475" y="78" as="targetPoint" />
            <Array as="points">
              <mxPoint x="227.3" y="182.51" />
              <mxPoint x="257.3" y="192.51" />
              <mxPoint x="577.3" y="100.01" />
              <mxPoint x="247.3" y="160.51" />
              <mxPoint x="227.3" y="242.51" />
            </Array>
          </mxGeometry>
        </mxCell>
        <mxCell id="HeKbBGghBGxe2ZGlagXf-35" value="" style="edgeStyle=entityRelationEdgeStyle;fontSize=12;html=1;endArrow=ERoneToMany;hachureGap=4;fontFamily=Architects Daughter;fontSource=https%3A%2F%2Ffonts.googleapis.com%2Fcss%3Ffamily%3DArchitects%2BDaughter;rounded=1;shadow=0;strokeColor=#CC00CC;strokeWidth=2;exitX=-0.033;exitY=0.522;exitDx=0;exitDy=0;exitPerimeter=0;" edge="1" parent="1" source="HeKbBGghBGxe2ZGlagXf-26" target="HeKbBGghBGxe2ZGlagXf-4">
          <mxGeometry width="100" height="100" relative="1" as="geometry">
            <mxPoint x="300" y="310" as="sourcePoint" />
            <mxPoint x="365.00000000000006" y="132.66999999999996" as="targetPoint" />
            <Array as="points">
              <mxPoint x="164.61" y="227.51" />
              <mxPoint x="194.61" y="237.51" />
              <mxPoint x="514.6099999999999" y="145.01" />
              <mxPoint x="184.61" y="205.51" />
              <mxPoint x="164.61" y="287.51" />
            </Array>
          </mxGeometry>
        </mxCell>
        <mxCell id="HeKbBGghBGxe2ZGlagXf-32" value="" style="edgeStyle=entityRelationEdgeStyle;fontSize=12;html=1;endArrow=ERoneToMany;hachureGap=4;fontFamily=Architects Daughter;fontSource=https%3A%2F%2Ffonts.googleapis.com%2Fcss%3Ffamily%3DArchitects%2BDaughter;rounded=1;shadow=0;strokeColor=#CC00CC;strokeWidth=2;entryX=1.035;entryY=0.4;entryDx=0;entryDy=0;entryPerimeter=0;exitX=-0.004;exitY=0.511;exitDx=0;exitDy=0;exitPerimeter=0;" edge="1" parent="1" source="HeKbBGghBGxe2ZGlagXf-7" target="HeKbBGghBGxe2ZGlagXf-16">
          <mxGeometry width="100" height="100" relative="1" as="geometry">
            <mxPoint x="180" y="147.5" as="sourcePoint" />
            <mxPoint x="215" y="262.5" as="targetPoint" />
            <Array as="points">
              <mxPoint x="240" y="170" />
              <mxPoint x="270" y="180" />
              <mxPoint x="260" y="148" />
              <mxPoint x="240" y="230" />
            </Array>
          </mxGeometry>
        </mxCell>
        <mxCell id="HeKbBGghBGxe2ZGlagXf-31" value="" style="edgeStyle=entityRelationEdgeStyle;fontSize=12;html=1;endArrow=ERoneToMany;hachureGap=4;fontFamily=Architects Daughter;fontSource=https%3A%2F%2Ffonts.googleapis.com%2Fcss%3Ffamily%3DArchitects%2BDaughter;rounded=1;shadow=0;strokeColor=#CC00CC;strokeWidth=2;exitX=0.005;exitY=0.467;exitDx=0;exitDy=0;exitPerimeter=0;" edge="1" parent="1" source="HeKbBGghBGxe2ZGlagXf-11" target="HeKbBGghBGxe2ZGlagXf-12">
          <mxGeometry width="100" height="100" relative="1" as="geometry">
            <mxPoint x="170" y="210" as="sourcePoint" />
            <mxPoint x="270" y="110" as="targetPoint" />
          </mxGeometry>
        </mxCell>
      </root>
    </mxGraphModel>
  </diagram>
</mxfile>
